REM DIRINDEX 1\2,1\3,1\4,1\5
REM DIRNAME "folder01","folder02","folder03","folder04","folder05"
TITLE ""
FILE "1Q_t_0488-0500.mp3" MP3
  TRACK 01 AUDIO
    TITLE "3:cjc172_2393"
    INDEX 01 00:00:00
  TRACK 02 AUDIO
    TITLE "0:"
    INDEX 01 00:01:27
  TRACK 03 AUDIO
    TITLE "4:cjc172_2394"
    INDEX 01 00:01:41
  TRACK 04 AUDIO
    TITLE "0:"
    INDEX 01 00:04:61
  TRACK 05 AUDIO
    TITLE "5:cjc172_2395"
    INDEX 01 00:05:04
  TRACK 06 AUDIO
    TITLE "0:"
    INDEX 01 00:10:38
  TRACK 07 AUDIO
    TITLE "3:cjc172_2396"
    INDEX 01 00:11:18
  TRACK 08 AUDIO
    TITLE "0:"
    INDEX 01 00:12:31
  TRACK 09 AUDIO
    TITLE "4:cjc172_2397"
    INDEX 01 00:12:47
  TRACK 10 AUDIO
    TITLE "0:"
    INDEX 01 00:15:04
  TRACK 11 AUDIO
    TITLE "5:cjc172_2398"
    INDEX 01 00:15:18
  TRACK 12 AUDIO
    TITLE "0:"
    INDEX 01 00:20:74
  TRACK 13 AUDIO
    TITLE "3:cjc172_2399"
    INDEX 01 00:21:52
  TRACK 14 AUDIO
    TITLE "0:"
    INDEX 01 00:23:09
  TRACK 15 AUDIO
    TITLE "4:cjc172_2400"
    INDEX 01 00:23:27
  TRACK 16 AUDIO
    TITLE "0:"
    INDEX 01 00:24:73
  TRACK 17 AUDIO
    TITLE "5:cjc172_2401"
    INDEX 01 00:25:12
  TRACK 18 AUDIO
    TITLE "0:"
    INDEX 01 00:31:11
  TRACK 19 AUDIO
    TITLE "3:cjc172_2402"
    INDEX 01 00:31:64
  TRACK 20 AUDIO
    TITLE "0:"
    INDEX 01 00:32:73
  TRACK 21 AUDIO
    TITLE "4:cjc172_2403"
    INDEX 01 00:33:16
  TRACK 22 AUDIO
    TITLE "0:"
    INDEX 01 00:35:65
  TRACK 23 AUDIO
    TITLE "5:cjc172_2404"
    INDEX 01 00:36:04
  TRACK 24 AUDIO
    TITLE "0:"
    INDEX 01 00:42:50
  TRACK 25 AUDIO
    TITLE "3:cjc172_2405"
    INDEX 01 00:43:28
  TRACK 26 AUDIO
    TITLE "0:"
    INDEX 01 00:44:53
  TRACK 27 AUDIO
    TITLE "4:cjc172_2406"
    INDEX 01 00:44:68
  TRACK 28 AUDIO
    TITLE "0:"
    INDEX 01 00:47:29
  TRACK 29 AUDIO
    TITLE "5:cjc172_2407"
    INDEX 01 00:47:43
  TRACK 30 AUDIO
    TITLE "0:"
    INDEX 01 00:56:07
  TRACK 31 AUDIO
    TITLE "3:cjc172_2408"
    INDEX 01 00:56:60
  TRACK 32 AUDIO
    TITLE "0:"
    INDEX 01 00:58:14
  TRACK 33 AUDIO
    TITLE "4:cjc172_2409"
    INDEX 01 00:58:31
  TRACK 34 AUDIO
    TITLE "0:"
    INDEX 01 00:59:62
  TRACK 35 AUDIO
    TITLE "5:cjc172_2410"
    INDEX 01 01:00:03
  TRACK 36 AUDIO
    TITLE "0:"
    INDEX 01 01:03:62
  TRACK 37 AUDIO
    TITLE "3:cjc172_2411"
    INDEX 01 01:04:40
  TRACK 38 AUDIO
    TITLE "0:"
    INDEX 01 01:05:59
  TRACK 39 AUDIO
    TITLE "4:cjc172_2412"
    INDEX 01 01:05:72
  TRACK 40 AUDIO
    TITLE "0:"
    INDEX 01 01:08:59
  TRACK 41 AUDIO
    TITLE "5:cjc172_2413"
    INDEX 01 01:08:73
  TRACK 42 AUDIO
    TITLE "0:"
    INDEX 01 01:13:60
  TRACK 43 AUDIO
    TITLE "3:cjc172_2414"
    INDEX 01 01:14:40
  TRACK 44 AUDIO
    TITLE "0:"
    INDEX 01 01:15:67
  TRACK 45 AUDIO
    TITLE "4:cjc172_2415"
    INDEX 01 01:16:10
  TRACK 46 AUDIO
    TITLE "0:"
    INDEX 01 01:17:64
  TRACK 47 AUDIO
    TITLE "5:cjc172_2416"
    INDEX 01 01:18:06
  TRACK 48 AUDIO
    TITLE "0:"
    INDEX 01 01:24:33
  TRACK 49 AUDIO
    TITLE "3:cjc172_2417"
    INDEX 01 01:25:10
  TRACK 50 AUDIO
    TITLE "0:"
    INDEX 01 01:26:35
  TRACK 51 AUDIO
    TITLE "4:cjc172_2418"
    INDEX 01 01:26:51
  TRACK 52 AUDIO
    TITLE "0:"
    INDEX 01 01:28:75
  TRACK 53 AUDIO
    TITLE "5:cjc172_2419"
    INDEX 01 01:29:16
  TRACK 54 AUDIO
    TITLE "0:"
    INDEX 01 01:33:61
  TRACK 55 AUDIO
    TITLE "3:cjc172_2420"
    INDEX 01 01:34:39
  TRACK 56 AUDIO
    TITLE "0:"
    INDEX 01 01:35:50
  TRACK 57 AUDIO
    TITLE "4:cjc172_2421"
    INDEX 01 01:35:64
  TRACK 58 AUDIO
    TITLE "0:"
    INDEX 01 01:36:73
  TRACK 59 AUDIO
    TITLE "5:cjc172_2422"
    INDEX 01 01:37:12
  TRACK 60 AUDIO
    TITLE "0:"
    INDEX 01 01:42:46
  TRACK 61 AUDIO
    TITLE "2:cjc172_2423"
    INDEX 01 01:43:26
  TRACK 62 AUDIO
    TITLE "0:"
    INDEX 01 01:44:27
  TRACK 63 AUDIO
    TITLE "3:cjc172_2424"
    INDEX 01 01:45:05
  TRACK 64 AUDIO
    TITLE "0:"
    INDEX 01 01:46:05
  TRACK 65 AUDIO
    TITLE "4:cjc172_2425"
    INDEX 01 01:46:22
  TRACK 66 AUDIO
    TITLE "0:"
    INDEX 01 01:47:22
  TRACK 67 AUDIO
    TITLE "5:cjc172_2426"
    INDEX 01 01:47:36
  TRACK 68 AUDIO
    TITLE "0:"
    INDEX 01 01:51:61
  TRACK 69 AUDIO
    TITLE "3:cjc172_2427"
    INDEX 01 01:52:39
  TRACK 70 AUDIO
    TITLE "0:"
    INDEX 01 01:53:71
  TRACK 71 AUDIO
    TITLE "4:cjc172_2428"
    INDEX 01 01:54:12
  TRACK 72 AUDIO
    TITLE "0:"
    INDEX 01 01:55:45
  TRACK 73 AUDIO
    TITLE "5:cjc172_2429"
    INDEX 01 01:55:61
  TRACK 74 AUDIO
    TITLE "0:"
    INDEX 01 02:02:10
  TRACK 75 AUDIO
    TITLE "3:cjc172_2430"
    INDEX 01 02:02:63
  TRACK 76 AUDIO
    TITLE "0:"
    INDEX 01 02:04:09
  TRACK 77 AUDIO
    TITLE "4:cjc172_2431"
    INDEX 01 02:04:26
  TRACK 78 AUDIO
    TITLE "0:"
    INDEX 01 02:06:51
  TRACK 79 AUDIO
    TITLE "5:cjc172_2432"
    INDEX 01 02:06:68
  TRACK 80 AUDIO
    TITLE "0:"
    INDEX 01 02:12:12
